<svg preserveAspectRatio="none" overflow="visible" style="display: block;" width="24" height="16" viewBox="0 0 24 16" fill="none" xmlns="http://www.w3.org/2000/svg">
<g id="Vector">
<path d="M1.01501 0C0.484194 0.0902991 0.081582 0.48886 0.00635704 0.997441L0 1.30882C0.0868795 1.87033 0.597561 2.29173 1.19618 2.29173L22.8461 2.28861C23.4532 2.28861 23.9703 1.79872 23.9989 1.19672C24.0254 0.609259 23.5835 0.0871853 22.9902 0H1.01501Z" fill="white"/>
<path d="M23.6461 7.19198C23.4289 6.97713 23.1407 6.85881 22.8366 6.85881L1.18771 6.85569C0.580609 6.85569 0.083701 7.27086 0 7.84483V8.15828C0.081582 8.72291 0.580609 9.14742 1.16546 9.14742L22.8377 9.14535C23.4702 9.14535 23.9872 8.63573 23.9915 8.00882C23.9936 7.70679 23.8675 7.4089 23.6471 7.19198H23.6461Z" fill="white"/>
<path d="M0 15.0119C0.0752249 15.5277 0.473599 15.9128 1.01924 16H22.9606C23.574 15.9035 24.0148 15.3928 23.9883 14.8033C23.9618 14.2013 23.4447 13.7114 22.8366 13.7114H1.14215C0.572133 13.7114 0.083701 14.1328 0 14.6943V15.0119Z" fill="white"/>
</g>
</svg>
